<svg version="1.1" id="Layer_1" xmlns="http://www.w3.org/2000/svg" xmlns:xlink="http://www.w3.org/1999/xlink" x="0px" y="0px"
	 width="100%" viewBox="0 0 1024 1024" enable-background="new 0 0 1024 1024" xml:space="preserve">
<path fill="#000000" opacity="1.000000" stroke="none" 
	d="
M582.209045,305.144958 
	C557.712219,344.647949 526.076965,376.035889 484.566528,396.896942 
	C462.153870,408.160431 438.368469,415.590027 414.324127,422.409058 
	C381.194519,431.804688 347.427399,439.015045 315.135468,451.301392 
	C282.831726,463.592224 253.573547,480.673370 229.281677,505.602173 
	C224.046387,510.974701 219.337997,516.799194 215.052460,522.964661 
	C214.152832,524.258972 213.628632,526.094421 211.509628,526.022949 
	C210.363083,524.695435 211.274002,523.497803 211.682663,522.283936 
	C230.487595,466.426086 268.123474,427.988892 321.169922,403.718384 
	C348.845581,391.055786 378.267303,383.688538 407.223907,374.880646 
	C429.413177,368.131226 451.133545,360.218903 470.768646,347.510193 
	C475.384338,344.522736 479.234863,340.759399 482.542084,336.415588 
	C480.546539,334.001740 478.253723,334.446747 476.184601,334.404022 
	C453.865234,333.943359 431.528717,333.930939 409.228058,333.027557 
	C368.284576,331.368988 327.313568,331.075500 286.361664,329.922302 
	C282.437897,329.811829 278.461456,329.797485 274.310608,328.634979 
	C275.659882,324.225983 278.967133,321.550995 281.619080,318.509369 
	C301.976807,295.160431 322.476990,271.935608 342.796326,248.553513 
	C345.692932,245.220291 348.159058,244.730957 352.190399,246.708328 
	C381.342102,261.007202 411.952393,271.208954 443.806885,277.281555 
	C475.958008,283.410645 508.347626,284.561584 540.548889,277.620117 
	C566.074158,272.117737 589.708557,262.114838 610.110779,245.355301 
	C610.867554,244.733673 611.609863,243.975006 613.764893,244.709427 
	C605.157166,265.798492 594.621460,285.740173 582.209045,305.144958 
z"/>
<path fill="#000000" opacity="1.000000" stroke="none" 
	d="
M527.977478,552.236938 
	C502.547729,547.356750 477.622864,542.121765 452.549652,537.734741 
	C420.936646,532.203613 389.377930,526.589905 357.166260,524.737183 
	C331.530945,523.262817 306.302338,523.865479 281.213593,529.122681 
	C252.660095,535.106018 226.542038,546.893494 202.160309,562.731567 
	C200.208588,563.999451 198.223343,565.219238 196.207520,566.381348 
	C195.869995,566.575928 195.295441,566.359497 194.786438,566.330444 
	C193.815125,563.895752 195.690796,562.484009 196.675568,560.939880 
	C212.206406,536.586548 234.060181,519.685791 259.870361,507.443146 
	C282.838684,496.548431 307.131531,490.718353 332.296631,487.898041 
	C353.230438,485.551880 374.215149,485.134705 395.127075,487.021240 
	C420.633209,489.322235 445.965729,493.119690 471.119720,498.108185 
	C485.145142,500.889709 499.346588,502.773285 513.443298,505.208679 
	C530.313477,508.123260 547.135132,511.321381 564.016113,514.170166 
	C592.068054,518.904114 620.079163,523.810425 648.377502,527.079773 
	C670.896973,529.681580 693.410645,532.051880 716.057861,531.650818 
	C735.785767,531.301453 755.217346,528.606201 773.337891,519.802185 
	C792.444153,510.519257 805.231201,495.649414 812.971497,476.110382 
	C813.667786,474.352753 813.679626,472.102692 815.935303,471.129974 
	C818.052368,472.607056 817.280640,474.750671 817.109070,476.593781 
	C814.386902,505.849182 800.303040,527.993347 775.306458,543.333496 
	C755.481323,555.499939 733.571106,561.473816 710.882507,565.043579 
	C693.068970,567.846313 675.096741,568.538879 657.089783,568.180420 
	C638.598816,567.812317 620.214722,566.024109 601.860535,563.819946 
	C577.235535,560.862671 552.875793,556.251282 527.977478,552.236938 
z"/>
<path fill="#000000" opacity="1.000000" stroke="none" 
	d="
M365.975647,709.998413 
	C365.960999,715.163574 365.911957,719.829468 365.943970,724.494812 
	C365.966614,727.792419 364.595367,729.356567 361.115387,729.219055 
	C356.790314,729.048157 352.442047,729.031738 348.122589,729.278198 
	C344.134064,729.505798 342.803802,727.732666 342.853516,723.973938 
	C342.970367,715.143738 342.896149,706.310913 342.894562,697.479187 
	C342.890381,674.149963 342.867584,650.820801 342.888947,627.491577 
	C342.894562,621.358765 343.417206,621.684937 349.408203,620.780151 
	C361.176453,619.002930 368.078430,623.570801 374.090851,633.862549 
	C384.992279,652.523071 397.577881,670.200073 409.482483,688.273132 
	C410.108765,689.223938 410.939484,690.040100 412.523376,691.932617 
	C412.523376,685.238831 412.775024,679.682678 412.475616,674.156372 
	C411.618347,658.333862 412.329834,642.506409 412.053467,626.685120 
	C411.978394,622.388489 413.871277,620.671631 418.116486,620.904480 
	C421.770416,621.104980 425.458069,621.093994 429.108765,620.848450 
	C433.666718,620.541870 435.305023,622.423767 435.249817,626.966370 
	C435.061554,642.461487 435.152954,657.960022 435.143188,673.457214 
	C435.132751,689.953918 435.006958,706.451965 435.198639,722.946350 
	C435.253662,727.680420 433.689240,729.335632 428.861694,729.313599 
	C412.631836,729.239563 412.680023,729.363708 403.639038,715.593018 
	C392.213867,698.190735 380.707947,680.841431 369.203369,663.491455 
	C368.409088,662.293579 367.865814,660.792358 365.975922,660.125549 
	C365.975922,676.687805 365.975922,693.093384 365.975647,709.998413 
z"/>
<path fill="#000000" opacity="1.000000" stroke="none" 
	d="
M817.935730,620.936279 
	C825.422546,621.107422 832.490173,621.201050 839.111267,623.685608 
	C849.527649,627.594360 856.883179,634.746948 857.879272,646.168884 
	C858.779480,656.491638 856.744995,665.948975 844.438721,672.917664 
	C844.169739,673.792236 844.883606,674.107178 845.394470,674.458435 
	C859.021423,683.827759 863.339539,693.688232 859.738403,707.261169 
	C856.320312,720.143860 846.063049,728.348755 830.744751,728.957703 
	C814.779907,729.592285 798.773804,729.153320 782.786560,729.286255 
	C778.378296,729.322937 778.720276,726.383362 778.719299,723.497742 
	C778.709229,693.518860 778.694641,663.540039 778.682312,633.561157 
	C778.681702,632.062256 778.707336,630.563110 778.692078,629.064392 
	C778.610229,621.038025 778.606750,620.992126 786.467651,620.954407 
	C796.793518,620.904968 807.119751,620.936951 817.935730,620.936279 
M805.282837,683.633972 
	C802.669617,683.395630 801.087524,684.379700 801.096863,687.203430 
	C801.119446,694.013855 801.143372,700.824402 801.188110,707.634705 
	C801.201233,709.637024 802.233643,710.772156 804.262024,710.725220 
	C812.039001,710.545349 819.885132,711.709717 827.571350,709.711731 
	C835.106079,707.753235 838.263062,703.461426 837.779175,696.050232 
	C837.337646,689.288452 833.257996,685.209045 825.959656,684.120178 
	C819.344360,683.133118 812.712463,683.325928 805.282837,683.633972 
M812.511719,640.275513 
	C810.351746,640.274414 808.180481,640.414124 806.034363,640.240906 
	C802.384766,639.946350 800.915405,641.457886 801.048889,645.130859 
	C801.235901,650.274841 801.171875,655.431152 801.093750,660.580383 
	C801.049988,663.469421 802.141296,664.847412 805.187195,664.786865 
	C811.000061,664.671265 816.821350,664.901123 822.630859,664.721069 
	C830.001831,664.492676 834.625793,659.937012 834.888306,652.994507 
	C835.145203,646.198669 830.694824,641.175720 823.449707,640.449402 
	C820.156677,640.119385 816.810730,640.317505 812.511719,640.275513 
z"/>
<path fill="#000000" opacity="1.000000" stroke="none" 
	d="
M644.690430,711.998230 
	C644.682678,704.504211 644.669983,697.509949 644.669250,690.515625 
	C644.668579,684.032837 644.674133,684.051758 638.411133,684.036072 
	C627.254211,684.008179 616.093872,684.095154 604.942261,683.829773 
	C601.437683,683.746399 600.238403,684.739868 600.284241,688.273804 
	C600.439697,700.250244 600.180237,712.233337 600.425232,724.206787 
	C600.508179,728.259094 599.108643,729.522095 595.245483,729.299194 
	C590.930237,729.050293 586.586548,729.154297 582.260376,729.280457 
	C579.066040,729.373657 577.729004,728.001404 577.769653,724.835022 
	C577.844543,719.007690 577.753052,713.178345 577.748657,707.349854 
	C577.728760,681.037903 577.714905,654.725891 577.699646,628.413940 
	C577.695435,621.073486 577.753845,621.011963 585.311707,620.930908 
	C588.309082,620.898743 591.306885,620.866028 594.304138,620.885620 
	C600.279907,620.924744 601.308594,621.888123 600.816467,628.007385 
	C600.027039,637.824341 600.473145,647.647400 600.380310,657.466248 
	C600.311951,664.693298 600.439941,664.700073 607.439697,664.699768 
	C617.598145,664.699341 627.760498,664.522644 637.913086,664.763672 
	C642.211548,664.865662 644.084839,663.930176 644.234375,659.070496 
	C644.526428,649.579651 644.816956,640.114929 644.223328,630.629211 
	C643.666809,621.736084 644.453003,620.963562 653.435486,620.923706 
	C667.308350,620.862122 667.303589,620.862122 667.307434,634.474792 
	C667.315613,663.284546 667.328979,692.094360 667.340637,720.904114 
	C667.343994,729.215515 667.344666,729.215210 658.807373,729.230957 
	C655.643311,729.236816 652.474304,729.135620 649.316528,729.280151 
	C645.836731,729.439514 644.546021,727.861816 644.673645,724.486816 
	C644.824463,720.496033 644.697388,716.494690 644.690430,711.998230 
z"/>
<path fill="#000000" opacity="1.000000" stroke="none" 
	d="
M525.218384,676.865295 
	C530.880127,692.582458 536.440613,707.919617 541.984985,723.262634 
	C543.896729,728.553040 543.376221,729.261292 537.630493,729.271667 
	C534.131470,729.278015 530.573608,728.842102 527.146606,729.333252 
	C521.354919,730.163269 518.432312,727.601135 517.228333,722.292908 
	C517.191772,722.131653 517.118835,721.978516 517.061951,721.821899 
	C512.439026,709.103394 512.439026,709.103638 499.068909,709.107239 
	C491.404327,709.109375 483.737274,709.224365 476.076263,709.059204 
	C472.744049,708.987366 470.809235,710.079590 469.866119,713.401428 
	C468.730652,717.400879 467.168365,721.277893 465.838226,725.223877 
	C464.864777,728.111511 463.083374,729.450378 459.870728,729.308411 
	C455.048706,729.095337 450.207397,729.194824 445.377960,729.313171 
	C441.532471,729.407288 440.790527,727.899414 442.064178,724.395264 
	C452.014801,697.018982 461.864471,669.606140 471.746613,642.204956 
	C473.778442,636.571167 475.927429,630.976196 477.806427,625.291931 
	C478.844177,622.152588 480.590942,620.698486 483.999451,620.809998 
	C489.658478,620.995056 495.330078,620.952576 500.992096,620.821411 
	C503.740723,620.757812 505.325867,621.862488 506.240082,624.401550 
	C510.861572,637.237549 515.544006,650.051453 520.199097,662.875305 
	C521.845032,667.409546 523.473999,671.950012 525.218384,676.865295 
M503.758118,682.627258 
	C500.037415,672.075684 496.316711,661.524109 492.407776,650.438721 
	C490.381165,653.737122 479.420410,685.940125 479.010376,689.546875 
	C487.703796,690.221741 496.339020,690.146667 504.919739,689.618530 
	C505.591949,687.026001 504.523987,685.244385 503.758118,682.627258 
z"/>
<path fill="#000000" opacity="1.000000" stroke="none" 
	d="
M679.597168,645.705444 
	C679.592529,638.900452 679.849365,632.553284 679.480835,626.242615 
	C679.226440,621.887207 680.953674,620.597107 684.954773,620.877136 
	C687.939148,621.085876 690.950317,620.900330 693.949463,620.912659 
	C702.131714,620.946350 702.138123,620.951050 702.143250,629.379639 
	C702.155151,649.040955 702.177307,668.702209 702.157349,688.363525 
	C702.151733,693.905640 703.738586,698.806396 707.328979,703.101868 
	C713.416870,710.385315 721.644409,709.618164 729.482178,708.385681 
	C737.116394,707.185364 741.423340,701.840271 742.988220,694.165649 
	C744.171509,688.362305 743.741394,682.544312 743.787598,676.734741 
	C743.917175,660.406616 743.835449,644.076843 743.924683,627.748230 
	C743.959106,621.448975 744.509033,621.001526 750.853760,620.951172 
	C754.685852,620.920776 758.518982,620.990601 762.350403,620.931946 
	C765.366272,620.885742 767.184570,622.079956 767.104309,625.289551 
	C766.529663,648.263611 768.508118,671.309326 766.116272,694.209167 
	C763.825195,716.145020 747.540100,729.970825 725.389221,730.237549 
	C711.366333,730.406372 698.605774,727.653015 688.899414,716.409546 
	C681.214844,707.507996 679.295227,696.757080 679.171387,685.645691 
	C679.024780,672.495728 678.531921,659.323181 679.597168,645.705444 
z"/>
<path fill="#000000" opacity="1.000000" stroke="none" 
	d="
M184.888458,659.928772 
	C189.042526,653.742798 193.001099,647.858765 197.326263,641.429810 
	C191.534668,640.390747 186.586777,641.031189 181.684998,640.956055 
	C173.187225,640.825562 164.684387,640.843079 156.186584,640.979431 
	C152.439133,641.039490 150.553757,639.741272 150.781693,635.761169 
	C150.962494,632.604736 150.941727,629.424500 150.795700,626.264771 
	C150.632828,622.740723 151.995728,620.983765 155.672867,620.987610 
	C177.005905,621.009827 198.338989,620.968201 219.672058,620.948486 
	C222.266022,620.946045 224.201889,621.547791 224.340439,624.763855 
	C224.717941,633.527466 223.770279,641.399170 218.195343,649.178528 
	C205.005508,667.583923 192.955246,686.806152 180.463348,705.710693 
	C179.841782,706.651306 179.400391,707.710938 178.866577,708.731445 
	C180.557297,710.410522 182.489044,709.734741 184.212570,709.739929 
	C195.545486,709.774231 206.881821,709.855469 218.210205,709.607788 
	C222.602249,709.511780 224.434555,710.676331 224.402664,715.475952 
	C224.311630,729.179138 224.508072,729.187561 210.753922,729.203125 
	C192.753983,729.223450 174.752487,729.105957 156.755173,729.329956 
	C152.091400,729.388000 151.211517,727.599182 150.634720,723.242249 
	C149.346024,713.508057 154.014755,706.331665 159.000916,698.951538 
	C167.672073,686.117004 176.139893,673.145020 184.888458,659.928772 
z"/>
<path fill="#000000" opacity="1.000000" stroke="none" 
	d="
M294.428345,711.153015 
	C296.944946,713.613647 298.103485,725.425354 296.483032,727.769714 
	C295.617462,729.022034 294.301575,729.204834 292.942413,729.206604 
	C274.616486,729.231018 256.290375,729.208313 237.964706,729.288818 
	C233.615952,729.307922 233.825409,726.392090 233.826508,723.485168 
	C233.834503,702.327026 233.848907,681.168945 233.856888,660.010803 
	C233.861038,649.015564 234.038666,638.015808 233.767365,627.027283 
	C233.655991,622.516541 234.993851,620.775696 239.676773,620.828613 
	C256.834473,621.022766 273.996033,620.956055 291.155487,620.862732 
	C295.333405,620.840027 297.424286,622.070557 296.722931,626.723999 
	C296.281433,629.653381 296.472260,632.707397 296.637665,635.691223 
	C296.825134,639.073242 295.632538,640.429504 292.058624,640.362000 
	C281.899597,640.170288 271.732605,640.411255 261.572815,640.240173 
	C257.753540,640.175842 256.074371,641.403687 256.280762,645.397583 
	C256.529846,650.216858 256.502167,655.061707 256.343719,659.887268 
	C256.225616,663.484009 257.486298,664.911865 261.262451,664.808105 
	C269.752716,664.574707 278.256622,664.861145 286.749207,664.674622 
	C290.468719,664.592896 292.292664,665.632019 292.228821,669.691101 
	C291.965210,686.444214 294.197327,683.757324 278.446259,683.989563 
	C272.284760,684.080505 266.116791,683.974548 259.956543,683.794495 
	C257.411804,683.720215 256.278320,684.582947 256.323151,687.200195 
	C256.434387,693.695801 256.527161,700.195251 256.420532,706.689758 
	C256.365234,710.053528 257.946594,710.958740 261.010345,710.943970 
	C272.003754,710.890991 282.997894,710.993286 294.428345,711.153015 
z"/>
<path fill="#000000" opacity="1.000000" stroke="none" 
	d="
M307.622192,648.118652 
	C307.435394,640.644775 307.313782,633.652466 307.040680,626.666199 
	C306.887207,622.739563 308.325500,620.734070 312.526123,620.924683 
	C316.515778,621.105774 320.527466,621.090210 324.517151,620.901245 
	C328.615540,620.707031 330.138336,622.452820 330.103729,626.515137 
	C329.960388,643.340271 329.996918,660.167053 329.985016,676.993225 
	C329.974182,692.319946 329.862671,707.648315 330.061493,722.972473 
	C330.123138,727.722961 328.507385,729.676453 323.676239,729.270508 
	C320.037842,728.964905 316.342163,729.075012 312.688721,729.287537 
	C308.807098,729.513245 307.464172,728.040405 307.490417,724.069946 
	C307.656860,698.915039 307.604340,673.758728 307.622192,648.118652 
z"/>
<path fill="#000000" opacity="1.000000" stroke="none" 
	d="
M690.466675,796.376709 
	C687.127319,796.889404 685.411560,795.812439 684.707825,792.742737 
	C683.521851,787.569153 682.001526,782.472961 680.753296,777.312439 
	C680.353577,775.659973 679.411804,773.480896 682.239136,772.930847 
	C684.525818,772.486023 686.415100,772.884277 687.357178,775.576599 
	C688.270569,778.186768 687.725708,781.214539 690.144897,784.295898 
	C690.878052,781.545837 691.510315,779.404175 692.011780,777.232300 
	C692.575439,774.791382 693.424500,772.853149 696.473389,772.859497 
	C699.714478,772.866211 700.688782,774.905945 701.260559,777.551270 
	C701.742676,779.782043 702.345703,781.986755 703.054688,784.845947 
	C704.914246,781.699524 705.044434,778.872437 705.555298,776.204590 
	C706.087219,773.426880 707.696045,772.628052 710.169189,772.959839 
	C713.155396,773.360352 712.750305,775.409119 712.221985,777.468201 
	C710.901489,782.614746 709.522644,787.747437 708.288025,792.914551 
	C707.605591,795.770325 705.757812,796.424927 703.121765,796.394348 
	C700.534729,796.364258 699.153259,795.360840 698.679810,792.754211 
	C698.267883,790.486389 697.484436,788.286133 696.566589,784.980469 
	C695.611816,788.217468 694.849976,790.449768 694.311035,792.734680 
	C693.850159,794.688293 693.093323,796.178955 690.466675,796.376709 
z"/>
<path fill="#000000" opacity="1.000000" stroke="none" 
	d="
M789.698242,791.027161 
	C788.692871,793.595337 788.447815,796.424438 785.030945,796.397705 
	C779.925110,796.357727 781.389465,791.124084 778.587585,788.432007 
	C778.399475,790.383301 778.224304,792.006348 778.090759,793.632812 
	C777.921326,795.695740 776.634949,796.498047 774.758423,796.584717 
	C772.771790,796.676453 771.412964,795.619751 771.362976,793.724915 
	C771.205383,787.756897 771.220154,781.782410 771.285889,775.811646 
	C771.304749,774.094238 772.465088,773.135010 774.186035,772.966431 
	C776.430054,772.746521 778.577759,772.838562 779.714355,775.253845 
	C781.333191,778.693848 782.910706,782.153259 784.959839,786.586487 
	C786.658691,782.737366 788.171448,779.699402 789.344604,776.535583 
	C790.380676,773.741577 792.163818,772.584656 795.052917,772.946411 
	C798.360291,773.360535 798.155823,775.867432 798.175659,778.209229 
	C798.213684,782.693481 798.217896,787.178101 798.231506,791.662537 
	C798.238708,794.034607 798.488708,796.520386 794.893066,796.459534 
	C791.391846,796.400269 791.535889,793.985535 791.559570,791.584900 
	C791.569153,790.615173 791.561157,789.645325 791.561157,788.630066 
	C789.871094,788.636475 790.356750,790.053040 789.698242,791.027161 
z"/>
<path fill="#000000" opacity="1.000000" stroke="none" 
	d="
M149.804901,796.361145 
	C140.063614,796.321594 140.061722,796.321716 139.316925,787.072327 
	C139.236938,786.078979 139.169189,785.083374 139.139389,784.087463 
	C138.796402,772.624512 141.651459,770.315369 152.836960,773.111511 
	C155.816559,773.856384 159.234589,776.381531 157.907700,778.749695 
	C154.816849,784.266052 163.377655,791.356689 155.136032,795.617554 
	C153.584915,796.419556 151.917435,796.317383 149.804901,796.361145 
M148.537659,790.706543 
	C150.059357,790.623169 151.791779,790.454712 151.007721,788.338928 
	C150.486771,786.933044 148.749435,786.869690 147.620087,787.483826 
	C145.795273,788.476196 146.059982,789.704407 148.537659,790.706543 
z"/>
<path fill="#000000" opacity="1.000000" stroke="none" 
	d="
M870.568848,774.788025 
	C870.836121,780.663025 870.951538,786.140442 870.982605,791.618408 
	C870.992859,793.424500 871.144287,795.528381 868.811401,796.105469 
	C866.451660,796.689270 864.182983,796.514648 862.639587,794.155396 
	C860.922791,791.531067 859.136658,788.952087 857.123291,785.972351 
	C855.766174,787.916931 856.296814,789.733948 856.195862,791.399902 
	C856.056824,793.694214 856.575073,796.352600 853.049500,796.492554 
	C849.478394,796.634460 849.729919,794.022217 849.679932,791.675171 
	C849.581055,787.028442 849.459900,782.381592 849.434082,777.734253 
	C849.424438,775.993835 848.834106,773.836121 851.311096,773.166321 
	C853.560791,772.557861 855.618530,772.980042 857.077271,775.007629 
	C858.962036,777.627441 860.822754,780.264526 863.039978,783.380798 
	C865.413086,771.564331 865.413086,771.564331 870.568848,774.788025 
z"/>
<path fill="#000000" opacity="1.000000" stroke="none" 
	d="
M584.776794,786.951904 
	C584.779358,784.968933 584.604553,783.450195 584.822327,781.989990 
	C585.261292,779.046509 583.065002,774.816162 586.567810,773.432434 
	C590.466797,771.892334 595.108765,772.086609 599.163208,773.988220 
	C603.035645,775.804321 604.922791,781.053772 602.207825,784.064880 
	C599.107178,787.503906 599.862061,790.050049 602.084900,793.133545 
	C602.521912,793.739746 602.557983,794.635010 602.792114,795.442261 
	C595.647766,799.306335 594.953674,792.647827 592.393433,789.182861 
	C590.594177,790.356934 591.439819,791.987122 591.336182,793.314636 
	C591.174622,795.382385 590.200073,796.273499 588.180420,796.273315 
	C586.211792,796.273132 584.982849,795.457764 584.885742,793.408386 
	C584.791565,791.422546 584.808777,789.431396 584.776794,786.951904 
z"/>
<path fill="#000000" opacity="1.000000" stroke="none" 
	d="
M752.170471,790.894043 
	C748.466980,796.157410 743.701416,797.668030 737.977783,796.097351 
	C732.876038,794.697205 730.290283,791.004211 729.792419,785.932251 
	C729.296143,780.875916 731.140259,776.747925 735.692688,774.187317 
	C739.828186,771.861206 746.270630,772.389648 749.787170,775.565186 
	C753.545410,778.958923 754.841125,783.266785 753.259094,788.234436 
	C753.007812,789.023438 752.652649,789.779297 752.170471,790.894043 
M746.439209,782.257690 
	C744.958313,779.036865 742.327576,778.410583 739.472961,779.826843 
	C736.732483,781.186340 736.357605,783.979309 737.009888,786.711304 
	C737.615356,789.247253 739.470093,790.765442 742.095398,790.416382 
	C745.366333,789.981628 746.880676,787.783813 746.754272,784.488647 
	C746.735291,783.995300 746.675720,783.503479 746.439209,782.257690 
z"/>
<path fill="#000000" opacity="1.000000" stroke="none" 
	d="
M389.129395,773.688904 
	C397.399872,771.724060 403.709625,775.026489 405.083588,781.730774 
	C406.526031,788.769531 402.279205,795.306458 395.338715,796.730469 
	C388.934601,798.044495 382.507507,793.334106 381.269562,786.419312 
	C380.328125,781.160645 382.802277,776.976501 389.129395,773.688904 
M396.868958,780.554260 
	C394.202148,778.526489 391.484924,778.491943 389.399658,781.137085 
	C387.608459,783.409241 387.568085,786.196411 389.450226,788.533936 
	C391.082764,790.561523 393.347168,791.106873 395.704865,789.727417 
	C398.857788,787.882629 399.247192,785.158325 397.848877,781.997742 
	C397.715088,781.695312 397.522583,781.418823 396.868958,780.554260 
z"/>
<path fill="#000000" opacity="1.000000" stroke="none" 
	d="
M262.121460,783.389648 
	C262.119415,780.808899 262.075500,778.647583 262.167664,776.492188 
	C262.256805,774.407166 263.235138,773.002258 265.504669,772.942749 
	C267.732178,772.884277 268.994232,774.096680 269.031921,776.246460 
	C269.107544,780.560852 269.355011,784.916992 268.882965,789.184204 
	C268.366364,793.854370 263.749939,797.046570 258.697144,796.915710 
	C253.750916,796.787598 249.628326,793.494934 249.071136,788.498413 
	C248.613647,784.395996 248.900665,780.207092 248.918106,776.056763 
	C248.926239,774.124207 249.849884,772.934265 251.919250,772.848267 
	C254.050690,772.759644 255.584076,773.568481 255.712448,775.829041 
	C255.862686,778.474487 255.780365,781.135559 255.740784,783.788940 
	C255.701599,786.415710 254.979416,789.732300 258.965271,789.724243 
	C262.915863,789.716248 262.402832,786.514160 262.121460,783.389648 
z"/>
<path fill="#000000" opacity="1.000000" stroke="none" 
	d="
M225.437073,777.597351 
	C227.276138,782.629761 229.027191,787.276917 230.682663,791.957825 
	C231.207718,793.442444 232.284073,795.367493 229.965942,796.162720 
	C228.309921,796.730835 226.485870,796.750977 224.971527,795.107910 
	C221.386536,791.218323 218.926514,791.259766 215.134201,795.184692 
	C213.267365,797.116699 211.264587,796.438293 208.555069,795.777283 
	C210.280289,788.157654 212.639206,780.814575 216.551270,774.196716 
	C218.383530,771.097229 223.172684,772.943115 225.437073,777.597351 
z"/>
<path fill="#000000" opacity="1.000000" stroke="none" 
	d="
M515.764648,788.159790 
	C514.102173,783.275146 512.565186,778.763672 511.046844,774.307068 
	C515.965759,771.893250 517.631226,772.496033 519.112183,776.951294 
	C520.085938,779.880676 520.535400,783.012817 522.439880,785.994141 
	C524.741577,783.022644 525.251892,779.697083 526.406067,776.669434 
	C527.233521,774.498779 528.254700,772.789856 530.934509,772.858521 
	C533.190613,772.916382 534.581177,773.716675 533.728882,776.195801 
	C531.682373,782.148926 529.541321,788.069641 527.417908,793.996094 
	C526.514648,796.516907 524.317688,796.689941 522.118591,796.832520 
	C519.793152,796.983276 518.371765,795.908264 517.682617,793.701477 
	C517.139343,791.961670 516.491455,790.254639 515.764648,788.159790 
z"/>
<path fill="#000000" opacity="1.000000" stroke="none" 
	d="
M488.698730,778.429321 
	C484.805939,780.336487 486.219055,781.287048 488.999512,781.749451 
	C490.946960,782.073242 493.352325,781.751709 493.374695,784.605835 
	C493.398468,787.638367 490.888245,787.065735 488.986115,787.236694 
	C487.805695,787.342773 486.495605,787.443176 486.532959,789.040588 
	C486.569489,790.605164 487.888550,790.705505 489.057983,790.810791 
	C490.048309,790.899841 491.052643,790.856873 492.037415,790.979370 
	C493.795441,791.198181 494.723907,792.260498 494.609283,794.021423 
	C494.506622,795.599304 493.470032,796.381348 491.942810,796.387146 
	C488.791565,796.399109 485.639923,796.344360 482.488586,796.308289 
	C480.194366,796.281982 479.166382,794.898254 479.140411,792.817505 
	C479.072052,787.345398 479.089172,781.871460 479.146088,776.398987 
	C479.168854,774.211914 480.451843,773.063171 482.602570,772.972961 
	C484.756134,772.882690 486.916656,772.805176 489.068756,772.878845 
	C491.099274,772.948364 493.919586,772.183777 494.118408,775.362000 
	C494.348816,779.045715 491.216827,778.104309 488.698730,778.429321 
z"/>
<path fill="#000000" opacity="1.000000" stroke="none" 
	d="
M562.836548,787.176514 
	C561.044006,787.413147 559.351135,786.830139 558.507080,788.745911 
	C559.020874,791.682312 561.494141,790.596313 563.234009,790.874451 
	C564.954651,791.149475 566.690063,791.333374 566.664124,793.595032 
	C566.635742,796.065369 564.894775,796.332214 562.879944,796.452393 
	C551.635559,797.123718 551.641357,797.153809 551.635254,785.891357 
	C551.633667,782.905579 551.747314,779.909363 551.539124,776.936829 
	C551.320496,773.815796 552.761780,772.760071 555.642090,772.854553 
	C557.961365,772.930603 560.286011,772.849548 562.608215,772.829834 
	C564.556213,772.813354 566.437012,773.047607 566.588013,775.510010 
	C566.746216,778.089966 564.862122,778.281494 562.903625,778.393677 
	C561.356689,778.482361 559.475525,777.920776 558.572937,780.266541 
	C559.872437,783.343689 565.401611,779.902161 565.660278,784.523865 
	C565.748535,786.100220 564.731750,786.909851 562.836548,787.176514 
z"/>
<path fill="#000000" opacity="1.000000" stroke="none" 
	d="
M191.366821,777.070801 
	C189.174545,779.693298 185.503326,777.011719 183.590393,779.715759 
	C184.042709,782.396912 186.106964,781.568848 187.565414,781.762451 
	C189.422394,782.008911 190.875702,782.632507 190.783600,784.744507 
	C190.700256,786.655823 189.163589,786.975769 187.602448,787.212585 
	C186.211548,787.423584 184.526398,786.851929 183.490372,788.725342 
	C183.931580,791.548828 186.345795,790.681580 188.085434,790.885742 
	C190.053696,791.116821 191.873169,791.526184 191.832077,793.934021 
	C191.786392,796.610596 189.658340,796.436768 187.827850,796.400879 
	C175.045624,796.150452 176.942017,797.813293 176.799393,785.687805 
	C176.787689,784.692078 176.795013,783.696045 176.791519,782.700195 
	C176.757202,772.898621 179.212799,770.916260 188.811935,772.928223 
	C190.957962,773.378052 192.081741,774.437561 191.366821,777.070801 
z"/>
<path fill="#000000" opacity="1.000000" stroke="none" 
	d="
M830.830322,791.709717 
	C831.273560,792.768188 831.844543,793.840942 831.525940,794.312073 
	C828.324341,799.045715 823.632202,795.534119 819.665222,796.221497 
	C816.928528,796.695679 816.635437,794.298340 816.638794,792.164001 
	C816.646667,787.171753 816.751038,782.176880 816.619202,777.188232 
	C816.539734,774.182800 817.876770,772.910400 820.745911,772.921509 
	C823.407898,772.931824 826.072083,772.852722 828.731262,772.938354 
	C830.498962,772.995239 831.469666,773.975342 831.361389,775.842346 
	C831.267761,777.456543 830.353271,778.153076 828.810120,778.336487 
	C826.982971,778.553650 824.768860,777.753906 823.630798,779.809631 
	C823.883972,781.772461 825.201172,781.627075 826.320618,781.716248 
	C828.335144,781.876648 830.656372,781.777649 830.614685,784.641602 
	C830.577576,787.197693 828.412292,787.117065 826.584106,787.304504 
	C825.462891,787.419495 824.184631,787.224976 823.469055,788.881714 
	C824.735840,792.422546 828.472046,789.904846 830.830322,791.709717 
z"/>
<path fill="#000000" opacity="1.000000" stroke="none" 
	d="
M334.176697,795.276123 
	C329.960602,797.296692 327.810608,796.153503 327.869019,791.694885 
	C327.926758,787.288696 325.349060,783.896851 323.533752,780.210205 
	C322.594482,778.302673 321.241058,776.559265 321.194397,774.314270 
	C325.523041,772.132141 325.523041,772.132141 331.317108,779.920410 
	C334.254242,777.167847 334.925507,770.441833 341.970673,773.860046 
	C339.857544,781.055908 334.076782,786.985046 334.176697,795.276123 
z"/>
<path fill="#000000" opacity="1.000000" stroke="none" 
	d="
M626.969116,790.320679 
	C626.181580,784.025513 621.156555,779.941101 620.170349,774.163025 
	C625.275635,771.736816 625.275635,771.736816 630.431702,779.768616 
	C633.724792,777.631531 633.941895,769.965332 640.681335,773.793823 
	C641.423157,776.338196 639.338928,777.981201 638.457153,780.005432 
	C636.888794,783.605957 634.074829,786.686951 634.113464,790.951538 
	C634.138245,793.681580 634.151489,796.559631 630.119568,796.296692 
	C626.283875,796.046509 627.052490,793.146118 626.969116,790.320679 
z"/>
<path fill="#000000" opacity="1.000000" stroke="none" 
	d="
M422.961243,789.834900 
	C422.981293,785.195251 422.991486,781.030640 423.025604,776.866211 
	C423.047028,774.250366 424.285950,772.848999 427.007568,772.877930 
	C429.672577,772.906250 432.338409,772.874084 435.003723,772.848389 
	C437.015045,772.828979 438.786041,773.247131 438.887848,775.679077 
	C438.998840,778.331116 437.102600,778.367981 435.127533,778.412842 
	C433.207062,778.456482 430.718536,777.493591 429.940887,780.391174 
	C431.078430,782.261597 432.770935,781.664978 434.158295,781.948364 
	C435.920013,782.308105 436.788513,783.367493 436.632904,785.111877 
	C436.496399,786.642273 435.541473,787.623596 433.975403,787.502930 
	C431.305481,787.297241 429.877899,788.152588 429.927643,791.078979 
	C429.970734,793.616699 429.930908,796.429810 426.234558,796.294556 
	C421.965332,796.138428 423.272522,792.738525 422.961243,789.834900 
z"/>
<path fill="#000000" opacity="1.000000" stroke="none" 
	d="
M291.985901,787.046387 
	C291.412201,783.327454 294.122650,778.414246 287.555237,778.201111 
	C286.298035,778.160339 286.009583,776.578735 286.160095,775.365234 
	C286.319458,774.080322 287.150482,773.123352 288.429596,773.097900 
	C293.062805,773.005920 297.699921,773.003052 302.333130,773.092834 
	C303.572968,773.116882 304.460815,773.978455 304.701202,775.279724 
	C304.930359,776.520020 304.723022,777.956970 303.438141,778.163574 
	C298.350586,778.981567 299.162567,782.785034 299.115387,786.194824 
	C299.087830,788.184326 299.059265,790.175049 299.096466,792.164001 
	C299.143280,794.666992 298.402283,796.344727 295.478516,796.323669 
	C292.447113,796.301819 292.018433,794.354614 292.007935,791.994690 
	C292.001282,790.502319 291.993042,789.010010 291.985901,787.046387 
z"/>
</svg>